<svg xmlns="http://www.w3.org/2000/svg" viewBox="0 0 1200 600" width="1200" height="600">
  <defs>
    <linearGradient id="g1" x1="0" x2="1" y1="0" y2="1">
      <stop offset="0%" stop-color="#0f172a"/>
      <stop offset="100%" stop-color="#1f2937"/>
    </linearGradient>
    <linearGradient id="g2" x1="0" x2="1" y1="1" y2="0">
      <stop offset="0%" stop-color="#2563eb" stop-opacity="0.25"/>
      <stop offset="100%" stop-color="#22d3ee" stop-opacity="0.15"/>
    </linearGradient>
  </defs>
  <rect width="1200" height="600" fill="url(#g1)"/>
  <g fill="none" stroke="url(#g2)" stroke-width="2">
    <path d="M0,520 C200,480 260,540 420,520 C600,496 700,560 900,520 C1060,488 1130,540 1200,520"/>
    <path d="M0,460 C180,420 260,480 420,460 C600,436 700,500 900,460 C1060,428 1130,480 1200,460"/>
  </g>
  <g fill="#93c5fd" opacity="0.65">
    <circle cx="180" cy="160" r="6"/>
    <circle cx="300" cy="220" r="4"/>
    <circle cx="950" cy="180" r="5"/>
  </g>
  <g fill="#a5f3fc" opacity="0.5">
    <rect x="980" y="420" width="6" height="6" rx="1"/>
    <rect x="1020" y="380" width="6" height="6" rx="1"/>
    <rect x="1060" y="420" width="6" height="6" rx="1"/>
  </g>
  <text x="60" y="520" fill="#cbd5e1" font-size="20" font-family="ui-monospace, SFMono-Regular, Menlo, monospace" opacity="0.7">python • readability • calm</text>
</svg>
